<svg viewBox="0 0 170 150" fill="white" xmlns="http://www.w3.org/2000/svg">
<rect width="170" height="150" fill="white"/>
<path fill-rule="evenodd" clip-rule="evenodd" d="M130 10H140H150H160V20V100V110V130V140H150H140H130V130V110V100V20V10ZM140 110V130H150V110H140ZM150 100H140V20H150V100Z" fill="#666666"/>
<path fill-rule="evenodd" clip-rule="evenodd" d="M80 10H70V20V130V140H80H110H120V130V80V70V20V10H110H80ZM110 70V20H80V130H110V80H100V120H90V80V70V30H100V70H110Z" fill="#666666"/>
<path fill-rule="evenodd" clip-rule="evenodd" d="M20 10H10V20V130V140H20H30H40V130V110H50H60V100V90V80V20V10H50H20ZM40 80H50V20H20V130H30V110V100H40H50V90H40H30V80V30H40V80Z" fill="#666666"/>
<path fill-rule="evenodd" clip-rule="evenodd" d="M120 20H110V130H120V100H130V130H140V100H130V90H140V20H130V90H120V20Z" fill="black"/>
<path fill-rule="evenodd" clip-rule="evenodd" d="M70 20H80V120V130H70H60H50V120V20H60V120H70V20Z" fill="black"/>
</svg>
