<svg viewBox="0 0 170 150" fill="none" xmlns="http://www.w3.org/2000/svg">
<path d="M10 140V10H60V20H20V130H30V100H50V110H40V140H10Z" fill="#666666"/>
<path d="M70 130V140H120V130H70Z" fill="#666666"/>
<path d="M120 10V20H70V10H120Z" fill="#666666"/>
<path d="M110 70H100V30H90V120H100V80H110V70Z" fill="#666666"/>
<path d="M130 140V130H150V110H140V100H150V20H130V10H160V140H130Z" fill="#666666"/>
<path d="M130 100H140V90H130V100Z" fill="#666666"/>
<path d="M50 80V90H30V30H40V80H50Z" fill="#666666"/>
<path d="M120 20H110V130H120V100H130V130H140V100H130V90H140V20H130V90H120V20Z" fill="black"/>
<path d="M70 20H80V130H50V20H60V120H70V20Z" fill="black"/>
</svg>
